<svg width="48" height="48" viewBox="0 0 48 48" fill="none" xmlns="http://www.w3.org/2000/svg">
  <rect x="8" y="8" width="8" height="8" rx="2" stroke="#00FFFF" stroke-width="2" fill="none"/>
  <rect x="20" y="8" width="8" height="8" rx="2" stroke="#00FFFF" stroke-width="2" fill="none"/>
  <rect x="32" y="8" width="8" height="8" rx="2" stroke="#00FFFF" stroke-width="2" fill="none"/>
  <rect x="8" y="20" width="8" height="8" rx="2" stroke="#00FFFF" stroke-width="2" fill="none"/>
  <rect x="20" y="20" width="8" height="8" rx="2" stroke="#00FFFF" stroke-width="2" fill="none"/>
  <rect x="32" y="20" width="8" height="8" rx="2" stroke="#00FFFF" stroke-width="2" fill="none"/>
  <rect x="8" y="32" width="8" height="8" rx="2" stroke="#00FFFF" stroke-width="2" fill="none"/>
  <rect x="20" y="32" width="8" height="8" rx="2" stroke="#00FFFF" stroke-width="2" fill="none"/>
  <rect x="32" y="32" width="8" height="8" rx="2" stroke="#00FFFF" stroke-width="2" fill="none"/>
  <line x1="16" y1="12" x2="20" y2="12" stroke="#00FFFF" stroke-width="2"/>
  <line x1="28" y1="12" x2="32" y2="12" stroke="#00FFFF" stroke-width="2"/>
  <line x1="12" y1="16" x2="12" y2="20" stroke="#00FFFF" stroke-width="2"/>
  <line x1="24" y1="16" x2="24" y2="20" stroke="#00FFFF" stroke-width="2"/>
  <line x1="36" y1="16" x2="36" y2="20" stroke="#00FFFF" stroke-width="2"/>
</svg>