<svg width="120" height="120" viewBox="0 0 120 120" fill="none" xmlns="http://www.w3.org/2000/svg">
  <defs>
    <!-- Gradiente principal del logo real: azul profundo a cyan brillante -->
    <linearGradient id="akroftGradient" x1="0%" y1="100%" x2="100%" y2="0%">
      <stop offset="0%" style="stop-color:#1E40AF;stop-opacity:1" />
      <stop offset="25%" style="stop-color:#2563EB;stop-opacity:1" />
      <stop offset="50%" style="stop-color:#3B82F6;stop-opacity:1" />
      <stop offset="75%" style="stop-color:#0EA5E9;stop-opacity:1" />
      <stop offset="100%" style="stop-color:#00F5FF;stop-opacity:1" />
    </linearGradient>
    
    <!-- Filtro de glow para efectos de luz -->
    <filter id="glow" x="-50%" y="-50%" width="200%" height="200%">
      <feGaussianBlur stdDeviation="3" result="coloredBlur"/>
      <feMerge> 
        <feMergeNode in="coloredBlur"/>
        <feMergeNode in="SourceGraphic"/>
      </feMerge>
    </filter>
  </defs>
  
  <!-- Forma principal del logo Akroft (letra A estilizada con formas fluidas) -->
  <!-- Parte izquierda de la A -->
  <path 
    d="M25 95 Q30 20 45 15 Q55 12 65 25 Q70 35 60 45 Q50 55 35 60 L25 95 Z" 
    fill="url(#akroftGradient)" 
    filter="url(#glow)"
    stroke="none"
  />
  
  <!-- Parte derecha de la A con curva característica -->
  <path 
    d="M65 25 Q75 15 85 20 Q95 30 90 45 Q85 60 95 75 Q100 85 90 95 Q80 100 70 90 Q65 80 70 70 Q75 60 70 50 Q65 40 65 25 Z" 
    fill="url(#akroftGradient)" 
    filter="url(#glow)"
    stroke="none"
  />
  
  <!-- Conector central (barra horizontal de la A) -->
  <path 
    d="M45 55 Q60 50 75 55 Q85 60 75 65 Q60 70 45 65 Q35 60 45 55 Z" 
    fill="url(#akroftGradient)" 
    filter="url(#glow)"
    stroke="none"
  />
  
  <!-- Elemento decorativo inferior (punto/nodo) -->
  <circle 
    cx="85" 
    cy="85" 
    r="8" 
    fill="url(#akroftGradient)" 
    filter="url(#glow)"
  />
  
  <!-- Líneas de conexión fluidas (opcional, para dar dinamismo) -->
  <path 
    d="M60 45 Q75 50 85 85" 
    stroke="url(#akroftGradient)" 
    stroke-width="2" 
    fill="none" 
    opacity="0.6"
    filter="url(#glow)"
  />
</svg>